<svg xmlns="http://www.w3.org/2000/svg" width="225" height="220"><path d="m21.623 11.86 2.412-.01c2.682-.008 5.363-.01 8.045-.011l5.75-.015c5.216-.013 10.433-.02 15.65-.024l9.768-.012c10.179-.013 20.357-.023 30.536-.027 11.767-.004 23.533-.022 35.3-.05 9.085-.022 18.17-.033 27.254-.034a5279.88 5279.88 0 0 0 16.293-.025c5.106-.016 10.212-.018 15.318-.01 1.877.001 3.755-.003 5.632-.013a816.86 816.86 0 0 1 7.669.004l2.268-.025c2.978.029 4.992.05 7.478 1.782C212 15 212 15 211.812 17.125 211 19 211 19 209 20a183.14 183.14 0 0 1-7.63.127l-2.414.005c-2.684.004-5.368 0-8.052-.003l-5.754.006c-5.221.004-10.442.002-15.663 0-5.454-.003-10.907 0-16.361 0-9.16.003-18.32 0-27.48-.005-10.603-.005-21.206-.003-31.809.002-9.09.005-18.18.005-27.269.003-5.435-.002-10.87-.002-16.304.001-5.109.003-10.218.001-15.326-.005-1.88 0-3.759 0-5.638.002-2.557.002-5.113-.001-7.67-.006l-2.277.007c-5.125-.02-5.125-.02-7.353-1.134v-6c3.062-1.53 6.264-1.144 9.623-1.14zM13 37h197l2 5c-1.016 1.477-1.016 1.477-3 3a63.03 63.03 0 0 1-7.75.374l-2.417.012c-2.68.01-5.361-.002-8.042-.014a3592.288 3592.288 0 0 1-21.405-.002c-5.451-.011-10.902-.007-16.354-.005-9.154 0-18.307-.01-27.461-.029-10.596-.021-21.192-.024-31.787-.018-10.179.005-20.357 0-30.536-.011-4.338-.005-8.677-.006-13.015-.004a4342.04 4342.04 0 0 1-15.313-.022c-1.878-.004-3.756-.005-5.634-.002-2.554.003-5.108-.006-7.663-.018l-2.275.011c-5.12-.044-5.12-.044-7.348-2.272l1-6zm10.743 23.733 2.378-.014c2.632-.013 5.263-.011 7.895-.01 1.885-.006 3.771-.012 5.657-.02a4800.44 4800.44 0 0 1 15.371-.024c4.275-.001 8.55-.009 12.824-.016 10.082-.016 20.164-.021 30.245-.02 10.41.002 20.818-.02 31.226-.051 8.931-.026 17.862-.037 26.793-.036 5.337 0 10.673-.005 16.01-.026 5.016-.02 10.033-.02 15.05-.005 1.843.002 3.686-.003 5.529-.015a613.97 613.97 0 0 1 7.536.01l2.22-.032c3.344.046 5.229.315 7.976 2.286 1.708 2.473 2.047 3.605 2.048 6.573l.03 2.604-.03 2.833.017 3.002c.013 3.275-.004 6.55-.022 9.826a3096.965 3096.965 0 0 1-.029 21.118c-.029 6.116-.026 12.231-.013 18.347.007 4.696-.001 9.39-.014 14.086a1809.92 1809.92 0 0 0 0 6.766c.002 3.149-.014 6.296-.036 9.445l.014 2.838-.03 2.596-.008 2.255C212 167 212 167 210.96 168.74c-3.052 1.963-6.197 1.67-9.71 1.635l-2.417.012c-2.68.01-5.361-.002-8.042-.014a3592.284 3592.284 0 0 1-21.405-.002c-5.451-.011-10.902-.007-16.354-.005-9.154 0-18.307-.01-27.461-.029-10.596-.021-21.192-.024-31.787-.018-10.179.005-20.357 0-30.536-.011-4.338-.005-8.677-.006-13.015-.004a4342.04 4342.04 0 0 1-15.313-.022c-1.878-.004-3.756-.005-5.634-.002-2.554.003-5.108-.006-7.663-.018l-2.275.011c-5.12-.044-5.12-.044-7.348-2.272-.246-1.886-.246-1.886-.24-4.227l-.009-2.685.022-2.954v-3.104c0-3.398.016-6.796.032-10.194l.008-7.054c.008-6.198.028-12.396.05-18.593.02-6.321.03-12.642.04-18.962.02-12.41.055-24.818.097-37.227 3.739-2.425 7.44-2.286 11.743-2.267zM20 70v91c2.773 1.386 5.07 1.172 8.173 1.224l3.996.07 4.412.061 4.628.073c14.15.214 28.3.3 42.451.351 9.504.037 19.004.112 28.506.287 8.299.153 16.594.23 24.894.22 4.386-.004 8.765.028 13.15.15 4.145.114 8.28.125 12.427.064a89.38 89.38 0 0 1 4.507.094c5.88.26 8.71-.754 14.856-2.594l21-21V70H20zm179.273 83.715-1.898 2.223-1.914 2.214c-1.564 1.586-1.564 1.586-1.461 2.848h9v-9c-2.17-.235-2.17-.235-3.727 1.715zM36.867 177.832l2.888-.01c2.012-.005 4.024-.007 6.037-.007 3.065-.002 6.13-.02 9.196-.04 1.96-.003 3.92-.005 5.88-.005l2.759-.022c7.57.027 13.699.735 19.373 6.252 3.345 4.18 4.29 8.725 4 14-1.85 6.219-5.304 9.994-10.991 13.08-4.544 1.39-8.99 1.245-13.716 1.256l-3.15.02c-2.196.01-4.392.015-6.589.015-3.344.004-6.688.04-10.033.078-2.138.006-4.277.01-6.416.012l-3.009.043c-6.2-.04-10.936-.922-16.096-4.504-4.623-4.86-5.363-8.926-5.277-15.43.58-5.38 3.001-8.538 7.214-11.945 5.79-3.072 11.521-2.785 17.93-2.793zM20 192c-.68 3.63-.321 5.364 1.336 8.648 4.192 3.701 8.44 3.049 13.852 2.98l3.317.008a670.96 670.96 0 0 0 6.94-.04 700.35 700.35 0 0 1 10.625 0c2.248-.007 4.495-.017 6.742-.03l3.214.015c5.665-.009 5.665-.009 10.638-2.402 2.011-3.28 1.93-5.411 1.336-9.179-2.048-2.953-3.668-4.726-7.274-5.467-2.858-.196-5.674-.226-8.538-.197l-3.172-.015a602.19 602.19 0 0 0-6.626.027c-3.379.027-6.754 0-10.132-.032-2.149.004-4.297.01-6.446.02l-3.055-.03c-5.933.098-9.12.518-12.757 5.694z"/></svg>