<svg xmlns="http://www.w3.org/2000/svg" width="215" height="176"><path d="m21.902 22.725 2.401-.015c2.617-.014 5.233-.013 7.85-.01l5.462-.014c3.815-.007 7.63-.007 11.446-.002 4.887.006 9.774-.01 14.661-.034 3.76-.015 7.52-.016 11.28-.013 1.802 0 3.604-.005 5.406-.015 2.52-.013 5.04-.006 7.56.006l2.25-.023c4.414.044 7.298.621 10.782 3.395.615 2.312.615 2.312.594 5l-.008 2.937L101.5 37l.008 3.062c-.097 7.282-.097 7.282-1.523 9.556-3.133 2.18-6.487 1.816-10.173 1.802l-2.528.026c-2.762.023-5.522.024-8.284.023l-5.75.023c-4.018.013-8.036.015-12.055.009-5.155-.006-10.31.025-15.465.065-3.958.026-7.916.029-11.875.025-1.9.002-3.802.012-5.703.03a542.25 542.25 0 0 1-7.965-.006l-2.39.04c-2.192-.034-2.192-.034-5.797-.655-2.44-2.954-3.382-5.257-3.328-9.066l.015-2.221.063-2.276.016-2.287C8.868 27.885 8.868 27.885 10 25c3.644-2.583 7.617-2.289 11.902-2.275zM18 31v12c9.483.154 18.967.302 28.45.443 4.404.066 8.807.133 13.21.205 4.247.07 8.494.134 12.741.195 1.623.024 3.246.05 4.868.078 2.268.038 4.535.07 6.803.1l3.916.061c2.935.132 2.935.132 5.012-1.082.027-1.812.046-3.625.062-5.438l.036-3.058C93.286 32.06 93.286 32.06 92 31c-2.3-.094-4.604-.117-6.906-.114h-2.188c-2.397 0-4.794.009-7.191.016l-4.973.005c-4.372.003-8.743.013-13.114.024-4.458.01-8.915.015-13.372.02-8.752.01-17.504.028-26.256.049zm109.896-8.177 2.435-.02c2.66-.02 5.318-.031 7.978-.041l2.751-.013c4.803-.02 9.605-.035 14.408-.044 4.965-.011 9.929-.046 14.893-.085 3.815-.026 7.63-.035 11.445-.038 1.83-.005 3.661-.017 5.492-.035a613.77 613.77 0 0 1 7.676-.017l2.294-.039c3.497.035 5.384.244 8.202 2.392 1.835 2.54 2.033 3.887 2.026 6.996l.002 2.79-.06 2.893.021 2.905c-.063 6.903-.063 6.903-1.473 9.146-3.133 2.188-6.486 1.812-10.173 1.791l-2.53.02c-2.76.02-5.521.015-8.283.01-1.917.004-3.833.01-5.75.015-4.018.01-8.036.007-12.055-.003-5.155-.011-10.31.009-15.465.038-3.958.018-7.916.018-11.875.012-1.9 0-3.802.006-5.703.019-2.655.014-5.31.004-7.964-.013l-2.39.029c-5.316-.072-5.316-.072-7.786-2.422-1.168-2.434-1.385-4.076-1.375-6.77l.002-2.653.049-2.749-.01-2.76c.055-6.776.055-6.776 2.322-10.177 3.672-1.224 7.071-1.163 10.896-1.177zM124 31v12c2.973 1.487 5.612 1.073 8.928 1.022l2.159-.03c2.359-.032 4.718-.073 7.077-.113l4.902-.072c4.304-.063 8.607-.132 12.911-.202 4.39-.07 8.781-.135 13.171-.2 8.618-.13 17.235-.265 25.852-.405.027-1.812.046-3.625.063-5.438l.035-3.058c.188-2.444.188-2.444-1.098-3.504-2.3-.094-4.604-.117-6.906-.114h-2.188c-2.397 0-4.794.009-7.191.016l-4.973.005c-4.372.003-8.743.013-13.114.024-4.458.01-8.915.015-13.372.02-8.752.01-17.504.028-26.256.049zM20.471 61.853l2.363-.011c2.626-.011 5.252-.015 7.879-.019l5.631-.02c5.11-.017 10.219-.028 15.328-.036a27792.742 27792.742 0 0 1 39.475-.06c11.525-.009 23.05-.035 34.574-.076 8.897-.03 17.795-.045 26.693-.048 5.32-.002 10.638-.011 15.958-.036a2239.67 2239.67 0 0 1 15.003-.018c1.838 0 3.677-.006 5.516-.02 2.504-.017 5.007-.01 7.51.003l2.222-.033c3.272.042 4.932.087 7.328 2.421 1.168 2.337 1.434 3.835 1.453 6.438.02 1.271.02 1.271.038 2.569l-.008 2.75.015 2.846c.007 1.983.006 3.967-.003 5.95-.008 3.036.02 6.07.052 9.106.002 1.928.001 3.856-.002 5.785l.034 2.75-.028 2.568v2.251c-.74 3.081-2.005 4.148-4.502 6.087a46.41 46.41 0 0 1-7.674.501l-2.355.017c-2.607.014-5.212-.001-7.819-.016a2535.988 2535.988 0 0 1-20.825.003c-5.305-.014-10.61-.008-15.915-.004-8.909.002-17.817-.011-26.726-.034a8308.859 8308.859 0 0 0-30.923-.017c-9.906.01-19.813.005-29.72-.01-4.22-.005-8.44-.005-12.66 0-4.968.004-9.934-.006-14.9-.028a947.47 947.47 0 0 0-5.478 0c-2.486.005-4.972-.007-7.458-.024l-2.206.018c-2.876-.037-4.853-.065-7.25-1.743-2.705-4.124-2.253-8.58-2.259-13.311l-.01-2.575c-.005-1.797-.007-3.594-.007-5.391-.002-2.744-.02-5.486-.04-8.23-.003-1.747-.005-3.495-.005-5.242l-.022-2.478C8.765 70.216 8.9 66.789 11 63c3.024-1.512 6.154-1.148 9.471-1.147zM18 70v35h181V70H18zm12.219 54.602 2.958-.01c2.057-.001 4.115.004 6.172.017 3.14.016 6.28 0 9.42-.02 2.004.003 4.008.007 6.012.013l2.832-.019c6.416.069 10.715 1.106 15.7 5.417 2.864 3.394 2.97 6.665 2.906 11.008-.52 4.738-3.767 7.972-7.219 10.992-2.826.942-4.628 1.141-7.56 1.177l-2.792.039-3.011.022-3.106.025c-2.17.014-4.339.024-6.508.032-3.312.017-6.623.061-9.935.105-2.109.01-4.218.019-6.326.026l-2.993.053c-5.93-.019-9.232-.57-13.769-4.479-3.385-3.836-3.516-7.634-3.348-12.563.526-3.686 1.836-5.727 4.348-8.437 5.337-3.477 10.064-3.438 16.219-3.398zM18 137c-.584 2.543-.584 2.543 0 5 3.08 2.054 3.742 2.253 7.224 2.275l2.57.029 2.765-.003 2.85.013c1.99.006 3.98.006 5.97.002 3.043-.003 6.087.02 9.13.045 1.934.003 3.867.003 5.8.002l2.759.028c5.004 0 5.004 0 9.538-1.914L68 141c-.27-2.437-.27-2.437-1-5-3.057-2.038-3.688-2.253-7.133-2.275l-2.508-.029-2.699.003-2.783-.013c-1.943-.006-3.885-.006-5.828-.002-2.972.003-5.943-.02-8.914-.045a3241.81 3241.81 0 0 0-5.662-.002l-2.693-.028c-6.037-.051-6.037-.051-10.78 3.391z"/></svg>