<svg xmlns="http://www.w3.org/2000/svg" xml:space="preserve" style="fill-rule:evenodd;clip-rule:evenodd;stroke-linejoin:round;stroke-miterlimit:2" viewBox="0 0 254 223"><path d="M170.72 169.19c4.93-1.51 10.18 1.26 11.69 6.2s-1.26 10.18-6.2 11.69c-14.37 4.41-24.04 12.95-27.24 20.97-.84 2.14-1.14 4.11-.8 5.71.25 1.2.99 2.33 2.22 3.22 5.26 3.84 16.59 4.83 35.59.22 11.24-2.73 23.3-6.45 33.98-9.74 10.91-3.37 20.46-6.32 27.08-7.55 12.19-2.26 24.39-3.81 34.23-3.32 12.9.63 22.59 4.78 25.92 14.7 2.14 6.4 1.55 11.98 1.01 16.96-.19 1.78-.36 3.45-.29 4.55l11.4-.84c10.9-.86 22.23-5.18 33.41-9.44 5.7-2.18 11.42-4.35 17.9-6.33 4.93-1.5 10.16 1.3 11.65 6.23 1.49 4.94-1.3 10.16-6.24 11.65-4.99 1.53-10.8 3.75-16.63 5.97-12.43 4.74-25.01 9.54-38.62 10.61-24.88 1.96-30.66-5.08-31.56-16.38-.2-2.68.07-5.26.37-8 .32-3.09.69-6.55-.14-9.05-.37-1.1-3.9-1.69-9.06-1.94-8.22-.4-19 .99-29.98 3.03-5.48 1.02-14.56 3.83-24.96 7.03-10.84 3.35-23.1 7.13-35.07 10.04-25.03 6.07-41.68 3.5-50.99-3.3-5.22-3.8-8.35-8.79-9.54-14.43-1.11-5.24-.46-10.9 1.75-16.49 5.06-12.69 19.03-25.81 39.12-31.97m94.41-109.64 40.4 38.9-55.18 58.26-49.44 13.27c-1.78.34-2.48-.36-2.18-2.03l11.19-50.12z" style="fill:#3c434a" transform="translate(-129.319 -28.4)"/><path d="m239.22 152.16-30.34 8.13c-1.09.22-1.52-.21-1.34-1.24l6.86-30.75zM298.78 28.4c2.51-.03 4.69.82 6.57 2.62L332.7 57.2c1.77 1.69 2.65 3.94 2.69 6.41.03 2.51-.7 4.79-2.44 6.56L318.4 85.33l-40.45-39.04 14.42-15.01c1.76-1.85 3.91-2.83 6.41-2.88" style="fill:#3c434a" transform="translate(-129.319 -28.4)"/></svg>